# xmcd CD database file
#
# Track frame offsets:
#	150
#	10977
#	18322
#	39847
#	57687
#	70157
#	83137
#	99539
#	109629
#	123042
#	136532
#	149252
#	179164
#
# Disc length: 3106 seconds
#
# Revision: 4
# Processed by: cddbd v1.5.2PL0 Copyright (c) Steve Scherf et al.
# Submitted via: CDex 1.51
#
DISCID=a80c200d
DTITLE=COP - ... bic
DYEAR=2000
DGENRE=Bluegrass
TTITLE0=Mavej vsem (Sawin' On The Strings)
TTITLE1=Reka (Lord Won't You Help Me)
TTITLE2=Bic (Reach)
TTITLE3=Tajny prani (The In Crowd)
TTITLE4=Co dal /Cash On The Barrelhead)
TTITLE5=Nad ranem
TTITLE6=Kdo (Just Me And You)
TTITLE7=Mary Jane (Mary Jane)
TTITLE8=Jednou (Dreamer Believer)
TTITLE9=Irish - Vyliz (Irish Rain)
TTITLE10=Derniera
TTITLE11=Klic ke vzpominkam
TTITLE12=Datova stopa
EXTD=YEAR: 2000
EXTT0=
EXTT1=
EXTT2=
EXTT3=
EXTT4=
EXTT5=
EXTT6=
EXTT7=
EXTT8=
EXTT9=
EXTT10=
EXTT11=
EXTT12=
PLAYORDER=
